PathFileType	4	(X/Y/Z)	17_1_38_p0_0-471_filt_butterworth.trc
DataRate	CameraRate	NumFrames	NumMarkers	Units	OrigDataRate	OrigDataStartFrame	OrigNumFrames
60.0	60.0	5	27	m	60.0	0	471
Frame#	Time	RHip			RKnee			RAnkle			RBigToe			RSmallToe			RHeel			LHip			LKnee			LAnkle			LBigToe			LSmallToe			LHeel			Neck			Head			Nose			RShoulder			RElbow			RWrist			RThumb			RIndex			RPinky			LShoulder			LElbow			LWrist			LThumb			LIndex			LPinky			
		X1	Y1	Z1	X2	Y2	Z2	X3	Y3	Z3	X4	Y4	Z4	X5	Y5	Z5	X6	Y6	Z6	X7	Y7	Z7	X8	Y8	Z8	X9	Y9	Z9	X10	Y10	Z10	X11	Y11	Z11	X12	Y12	Z12	X13	Y13	Z13	X14	Y14	Z14	X15	Y15	Z15	X16	Y16	Z16	X17	Y17	Z17	X18	Y18	Z18	X19	Y19	Z19	X20	Y20	Z20	X21	Y21	Z21	X22	Y22	Z22	X23	Y23	Z23	X24	Y24	Z24	X25	Y25	Z25	X26	Y26	Z26	X27	Y27	Z27	
0	0.0	0.25433072130302525	0.8407413323107573	0.5900231847183572	0.23974851122063273	0.4087960616620509	0.6188413499841428	0.22204918958520614	0.00885415189090906	0.6947789363232393	0.2559700621567395	-0.01073847899886092	0.5320553582608193	0.30780150443550014	-0.027434583026636504	0.5833301803713445	0.20063343074877923	-0.0548799347918337	0.7343685568560405	0.04572897011778345	0.8323312675003188	0.5930008120270785	0.04627248619546217	0.39602090293394726	0.6311445797262508	0.048710708068272206	-0.010527087564396617	0.671993516508367	0.08122208091280093	0.02995360847972294	0.46272983428414627	0.008097178577962598	-0.00917691621439587	0.5311523125512777	0.06216714173324885	-0.06158237866537627	0.730523812124447	0.1741007840621492	1.4404689914105426	0.597090030102142	0.1826614893220716	1.679751089468234	0.6039899641901979	0.19725947590772472	1.5598922274462605	0.4755012482545567	0.2991880316668222	1.318029097913934	0.6247621194698516	0.3593491053050836	1.086727594147548	0.5569378235489278	0.24943487041600376	0.9261894456683201	0.43228095867044825	0.1620440990721618	0.8422659207596253	0.4511133983156822	0.16371689866021696	0.8296116404255329	0.4534388907169677	0.1683690673475533	0.8143417268634571	0.4715024959109485	0.011520397725394463	1.345823228965065	0.5582618772755843	-0.019949395910482986	1.0951783116456109	0.5383175343702306	0.1130500182050281	0.9476345486625063	0.40060766877941323	0.1721775799221279	0.8618305259347153	0.45199368977966303	0.18065320382461156	0.8373688445116722	0.44365862348837826	0.16932591397487243	0.8313481135858269	0.46929194975759186	
1	0.0166666666666666	0.25439308090100793	0.8400914149958274	0.5898641612975288	0.23894462270518987	0.4094457389378217	0.6137100748240173	0.2215855699415559	0.010632959047733717	0.6917848905683237	0.255044682015876	-0.011177795982781381	0.5326134006435156	0.3074735779027654	-0.027808706628394138	0.5847366357181818	0.19871298095845888	-0.053733867124662785	0.7325076845980932	0.045825095791537006	0.8306210346341938	0.5932201815334643	0.045655481373466957	0.39376330510062685	0.6304146207241078	0.04881934128607564	-0.011122831647595227	0.671718637867952	0.07739918815629039	0.02089453859464848	0.4696854211431009	0.008477270246509171	-0.011087439399541231	0.5304291584180898	0.062240424011325186	-0.06262507162028458	0.73062495246178	0.17409420925670557	1.4405080592948591	0.597125143387391	0.18371114129467966	1.6799956390178317	0.6016910059112436	0.1995128208394124	1.5620851336885373	0.47088627144186623	0.29916334747799517	1.3206590452934575	0.6247418020025179	0.3601946829074778	1.0894801042984803	0.555410005093585	0.2477105477845238	0.9291184998105058	0.43062496913841825	0.16491807737474018	0.8387470707346213	0.4567852369778256	0.16438403196648052	0.8295010891738861	0.4572933623691859	0.16809174169953206	0.8165304496304371	0.4674930662259324	0.011476505758381427	1.3455069748839505	0.5585817913849733	-0.018597287189156684	1.0990696952216716	0.5305785432163012	0.11530983776396414	0.9479912099260185	0.4063239943185056	0.17284807739256544	0.8613455681989561	0.4539017460974493	0.1825016200113368	0.8389051469381623	0.4449602736791145	0.16952911161605505	0.8332635876701011	0.464979039773601	
2	0.0333333333333333	0.25444618495515137	0.8394750331543124	0.5897068791219809	0.23829780075424728	0.4099153832405319	0.6095347690599906	0.22120866110516638	0.012192458774335793	0.6891703160309748	0.2550320067573912	-0.011348785578205837	0.5331262788816608	0.30770770591753993	-0.028052941160113233	0.585355643929243	0.19710140527989198	-0.05286525173815653	0.7310369155618617	0.04598142694266587	0.8292649614288755	0.5931013539685408	0.045138471139886616	0.3919561240109107	0.6298117649435946	0.04890514950891367	-0.011577867012350612	0.6715068610173837	0.07510543137480993	0.015893876379287943	0.47340480563654874	0.00870729101453361	-0.012261460969520473	0.5299655833953446	0.062301667024191196	-0.06344402783179329	0.7307127196406996	0.17408655188507194	1.4405363538962177	0.5971644157410465	0.1840778645165764	1.6803683032592758	0.6009742242456537	0.20099188848865449	1.5635023514707587	0.46784089395376194	0.29912725626392345	1.3227092964321456	0.62469164557885	0.3605611112151708	1.0910710516555724	0.554972680437984	0.246118550099142	0.9306993806441989	0.43030770573426846	0.16656412589985967	0.8363141946545795	0.4607705649077467	0.1648831555172034	0.8294622704087933	0.4603708000213622	0.16821874315801047	0.8183697745897528	0.46421795874657984	0.011446178311527593	1.3453480502537116	0.5587961639126229	-0.017825718022124026	1.1015817228489184	0.5255616069634836	0.11686797851751837	0.9482164879368569	0.4100135752970162	0.17412466374454455	0.8615057230275686	0.45403350235344364	0.1837889538055354	0.8398166770341743	0.4458442172616125	0.16941898403853628	0.8345173237072211	0.4620232151657873	
3	0.05	0.2544907234390474	0.8388923033574566	0.5895527891734219	0.23779571091308824	0.41021967292504863	0.6062434581748332	0.2209102627444376	0.013544396936479672	0.6869138109941606	0.2556810304328653	-0.011347842560779496	0.5335741326774777	0.3083403732205074	-0.028163496983077956	0.5853470960629531	0.19577657899650028	-0.05224841313128854	0.7299247669538598	0.04618683186101987	0.828231882959543	0.5926828657303467	0.044714771124821015	0.39056065667708517	0.6293259539364203	0.04897005730363189	-0.01190480032152788	0.6713525075570491	0.07407575083011683	0.014143137242866123	0.4745298475687624	0.008812578318537132	-0.012815764213656267	0.5297269108949972	0.06235187321048029	-0.06405809108932714	0.7307878790260368	0.17407842854940905	1.4405557572727339	0.5972044935796323	0.18392843728191774	1.6807983525762802	0.6014447913761656	0.2017967388888422	1.564278602379804	0.4661621133433069	0.29908433110262495	1.3242430041130235	0.6246212291024615	0.36056010292541774	1.091736444259682	0.5553524256781539	0.24469470429604134	0.9311926502297305	0.4309779583819615	0.16723185147210748	0.8347854709666175	0.463334836842465	0.1652412349480719	0.8294569647316955	0.46274826725031637	0.16863748827585967	0.8198677249375727	0.46162577780333774	0.011426763113963071	1.3453504302969674	0.558913791317789	-0.017511738264973244	1.1029752934893355	0.5227560545847594	0.11784357310851075	0.9483364336308148	0.4120570637052416	0.17580060719526117	0.8621440594385583	0.45282914505307714	0.18460795238810493	0.8402416323465585	0.4463803284367055	0.16908175477213244	0.835232053108323	0.46018889488849274	
4	0.0666666666666666	0.25452738632628796	0.8383433421765049	0.5894033424335599	0.23742601872699615	0.410373286346238	0.6037641676513149	0.22068217452776953	0.014700519399928877	0.6849939737408484	0.2567407470938786	-0.011271361706147613	0.5339371017331891	0.30920806455235145	-0.028136584458572235	0.5848708831777362	0.1947163773917055	-0.05185767580303217	0.7291397559806021	0.046430178836448836	0.8274906343013751	0.5920032532169205	0.044377696958369996	0.38953820011143714	0.6289471292542941	0.049015989237075897	-0.012116238237992114	0.6712498990873355	0.07404508678396841	0.014833836594607318	0.47370240674401415	0.00881846959502096	-0.012867132421271694	0.5296784643290027	0.062392045008825864	-0.06448610518231088	0.7308511959826234	0.17407045585187766	1.4405681514825224	0.5972420233196717	0.18342963788485964	1.681215057352557	0.6027078794855162	0.20202743207336668	1.5645486080025541	0.46564692716356404	0.2990391450721176	1.3253233211191164	0.6245401314769662	0.36030337073547364	1.0917122901516663	0.5562758169101243	0.24347483731140496	0.9308588706274312	0.43228451700546	0.16717086091607083	0.8339790781178533	0.4647435075189999	0.16548523589477238	0.8294469527440339	0.46450282763286804	0.16923539360595077	0.8210323238700644	0.45966512772665286	0.011415607894817964	1.345518090236338	0.5589434700597276	-0.01753239777329257	1.1035113061049073	0.5216512150531099	0.11835575417976123	0.9483770979436852	0.41283511153347807	0.17766917596191115	0.8630936464499309	0.4507288607017814	0.18505136293994293	0.8403182104221657	0.4466384814052267	0.1686036473466599	0.8355305072845427	0.4592404978960591	
